<svg width="91" height="91" viewBox="0 0 91 91" fill="none" xmlns="http://www.w3.org/2000/svg">
<path d="M45.5 13.2708C40.1748 10.3652 32.6926 5.83331 25.6667 5.83331C15.2542 5.83331 5.83334 12.0164 5.83334 30.625C5.83334 54.9159 11.0693 72.3246 19.0771 82.8709C21.9182 86.6194 28.845 85.4542 31.8051 81.7008C33.7785 79.1968 35.866 74.5657 38.0625 67.8125C39.5103 63.9896 42.4853 60.3551 45.5 60.375C48.4849 60.375 51.4996 64.0293 52.9375 67.8125C55.134 74.5657 57.2215 79.1918 59.1949 81.6958C62.155 85.4592 69.1116 86.6194 71.923 82.8709C79.9307 72.3246 85.1667 54.9208 85.1667 30.625C85.1667 12.0808 75.7062 5.83331 65.3333 5.83331C58.2776 5.83331 50.855 10.3504 45.5 13.2708Z" stroke="url(#paint0_linear_26_14)" stroke-width="10" stroke-linecap="round" stroke-linejoin="round"/>
<path d="M45.5 13.2708L60.375 20.7083" stroke="url(#paint1_linear_26_14)" stroke-width="10" stroke-linecap="round" stroke-linejoin="round"/>
<defs>
<linearGradient id="paint0_linear_26_14" x1="45.5" y1="5.83331" x2="45.5" y2="85.1673" gradientUnits="userSpaceOnUse">
<stop stop-color="#D31DF0"/>
<stop offset="1" stop-color="#3A54DE"/>
</linearGradient>
<linearGradient id="paint1_linear_26_14" x1="52.9375" y1="13.2708" x2="52.9375" y2="20.7083" gradientUnits="userSpaceOnUse">
<stop stop-color="#D31DF0"/>
<stop offset="1" stop-color="#666666"/>
</linearGradient>
</defs>
</svg>
